<svg width="148" height="35" viewBox="0 0 148 35" fill="none" xmlns="http://www.w3.org/2000/svg">
<path d="M17.5556 20.8266H6.16018C6.16018 22.6674 6.16018 24.3475 6.16018 25.8669C6.16018 27.3571 6.17479 28.7596 6.20401 30.0745H19.747V34.3697H0.11183C0.141049 32.9671 0.170269 31.7399 0.199488 30.6881C0.257926 29.607 0.301754 28.4966 0.330973 27.3571C0.360193 26.1883 0.389412 24.8589 0.41863 23.3687C0.44785 21.8785 0.462459 20.0085 0.462459 17.7586C0.462459 15.5088 0.44785 13.2004 0.41863 10.8337C0.389412 8.43774 0.330973 6.05639 0.243316 3.68964H18.9143V7.98484H6.24783C6.1894 9.12439 6.16018 10.4246 6.16018 11.8856C6.16018 13.3173 6.16018 14.9536 6.16018 16.7944H17.5556V20.8266ZM22.674 24.8589C22.674 22.6674 22.9077 20.7682 23.3752 19.1611C23.8719 17.5249 24.5586 16.1808 25.4352 15.1289C26.3117 14.0478 27.3344 13.2443 28.5032 12.7183C29.7012 12.1924 31.0014 11.9294 32.4039 11.9294C33.3097 11.9294 34.0548 12.0171 34.6392 12.1924C35.2528 12.3385 35.9248 12.4115 36.6553 12.4115C36.9767 12.4115 37.2835 12.3823 37.5757 12.3239C37.8679 12.2654 38.3062 12.1486 38.8905 11.9732L39.3727 20.476L35.0775 21.0458C35.1067 20.7536 35.1213 20.4906 35.1213 20.2569C35.1505 19.9939 35.1651 19.7163 35.1651 19.4241C35.1651 17.8171 34.8729 16.6775 34.2885 16.0055C33.7334 15.3042 33.1344 14.9536 32.4916 14.9536C31.0891 14.9536 30.0518 15.6841 29.3797 17.145C28.7077 18.606 28.3717 20.7536 28.3717 23.5878C28.3717 25.9838 28.7515 27.7077 29.5112 28.7596C30.3001 29.8115 31.4397 30.3374 32.9299 30.3374C33.9525 30.3374 34.9606 30.1621 35.954 29.8115C36.9767 29.4316 37.8679 29.081 38.6276 28.7596V32.6165C37.6926 33.4639 36.5676 34.0482 35.2528 34.3697C33.9671 34.7203 32.6523 34.8956 31.3082 34.8956C30.2271 34.8956 29.1606 34.7641 28.1087 34.5011C27.086 34.2382 26.1656 33.7561 25.3475 33.0548C24.5586 32.3243 23.9158 31.3017 23.4191 29.9868C22.9223 28.6719 22.674 26.9626 22.674 24.8589ZM52.3107 15.5234C50.9374 15.5234 49.8855 16.2538 49.155 17.7148C48.4245 19.1465 48.0593 21.1188 48.0593 23.6317C48.0593 26.0861 48.3515 27.9999 48.9359 29.3732C49.5495 30.7173 50.6013 31.3893 52.0915 31.3893C53.4648 31.3893 54.5313 30.6442 55.291 29.1541C56.0507 27.6347 56.4305 25.6186 56.4305 23.1057C56.4305 21.9369 56.3721 20.8851 56.2552 19.9501C56.1384 19.015 55.9192 18.2261 55.5978 17.5833C55.3056 16.9113 54.8819 16.3999 54.3268 16.0493C53.8008 15.6987 53.1288 15.5234 52.3107 15.5234ZM42.3177 23.7631C42.3177 21.9516 42.5661 20.3153 43.0628 18.8543C43.5595 17.3934 44.2462 16.1516 45.1228 15.1289C46.0286 14.1062 47.1243 13.3173 48.4099 12.7622C49.6956 12.207 51.1273 11.9294 52.7051 11.9294C55.6855 11.9294 57.9938 12.879 59.63 14.7783C61.2955 16.6775 62.1283 19.3365 62.1283 22.7551C62.1283 24.5959 61.8799 26.2614 61.3832 27.7515C60.8865 29.2417 60.1852 30.5274 59.2794 31.6085C58.3736 32.6603 57.2779 33.4785 55.9923 34.0629C54.7358 34.618 53.3333 34.8956 51.7847 34.8956C50.3238 34.8956 49.0089 34.6326 47.8401 34.1067C46.6714 33.5807 45.6779 32.8357 44.8598 31.8714C44.0417 30.9072 43.4135 29.7384 42.9752 28.3651C42.5369 26.9918 42.3177 25.4578 42.3177 23.7631ZM91.3934 3.68964C91.3058 4.62465 91.2327 5.58888 91.1743 6.58233C91.1451 7.54656 91.1159 8.62766 91.0866 9.82565C91.0866 10.9944 91.072 12.3093 91.0428 13.7702C91.0428 15.2312 91.0428 16.8967 91.0428 18.7667C91.0428 20.5198 91.0428 22.1123 91.0428 23.544C91.0428 24.9465 91.0428 26.2614 91.0428 27.4886C91.072 28.7158 91.0866 29.8845 91.0866 30.9949C91.1159 32.1052 91.1451 33.2301 91.1743 34.3697H84.9945C85.0237 33.1425 85.0529 32.0614 85.0821 31.1263C85.1113 30.1621 85.1406 29.1833 85.1698 28.1898C85.2282 27.1964 85.272 26.1299 85.3013 24.9903C85.3305 23.8508 85.3451 22.4629 85.3451 20.8266H72.4595C72.4595 22.2291 72.4595 23.544 72.4595 24.7712C72.4595 25.9692 72.4595 27.1233 72.4595 28.2337C72.4887 29.3148 72.5033 30.3666 72.5033 31.3893C72.5325 32.3828 72.5618 33.3762 72.591 34.3697H66.4111C66.4404 32.9671 66.4696 31.7399 66.4988 30.6881C66.5572 29.607 66.6011 28.4966 66.6303 27.3571C66.6595 26.1883 66.6887 24.8589 66.7179 23.3687C66.7472 21.8785 66.7618 20.0085 66.7618 17.7586C66.7618 15.5088 66.7472 13.2735 66.7179 11.0528C66.6887 8.80298 66.6303 6.49467 66.5426 4.12793L72.8101 3.68964C72.7225 4.537 72.6494 5.41357 72.591 6.31936C72.5618 7.19593 72.5325 8.16016 72.5033 9.21205C72.5033 10.2347 72.4887 11.3743 72.4595 12.6307C72.4595 13.8579 72.4595 15.2458 72.4595 16.7944H85.3451C85.3451 14.7198 85.3159 12.6453 85.2574 10.5707C85.2282 8.46696 85.1844 6.31936 85.1259 4.12793L91.3934 3.68964ZM101.476 34.8956C99.6356 34.8956 98.1454 34.2674 97.0059 33.011C95.8956 31.7546 95.3404 30.1183 95.3404 28.1022C95.3404 25.9984 95.954 24.3183 97.1812 23.0619C98.4084 21.8055 100.045 21.1773 102.09 21.1773C102.937 21.1773 103.785 21.2941 104.632 21.5279C105.479 21.7616 106.239 22.0977 106.911 22.5359V20.0815C106.911 18.7082 106.648 17.744 106.122 17.1888C105.596 16.6337 104.691 16.3561 103.405 16.3561C102.528 16.3561 101.593 16.473 100.6 16.7067C99.6356 16.9113 98.8613 17.1742 98.2769 17.4956L96.9182 13.2881C97.3565 13.1128 97.8825 12.9375 98.4961 12.7622C99.1097 12.5868 99.7671 12.4408 100.468 12.3239C101.17 12.207 101.885 12.1193 102.616 12.0609C103.346 11.9732 104.018 11.9294 104.632 11.9294C109.775 11.9294 112.346 14.4423 112.346 19.4679C112.346 19.9062 112.317 20.549 112.258 21.3964C112.229 22.2437 112.185 23.1349 112.127 24.0699C112.098 24.9757 112.054 25.8231 111.995 26.612C111.966 27.4009 111.951 27.9561 111.951 28.2775C111.951 28.9495 112.054 29.4316 112.258 29.7238C112.463 30.016 112.843 30.1621 113.398 30.1621C113.778 30.1621 114.216 30.1037 114.713 29.9868L114.011 34.1943C113.544 34.3404 113.106 34.4573 112.697 34.545C112.317 34.6326 111.922 34.6765 111.513 34.6765C110.432 34.6765 109.526 34.3843 108.796 33.7999C108.065 33.1863 107.627 32.3243 107.481 31.214C106.897 32.3535 106.078 33.2593 105.027 33.9314C103.975 34.5742 102.791 34.8956 101.476 34.8956ZM103.58 30.8634C104.515 30.8634 105.304 30.5274 105.947 29.8553C106.619 29.1833 106.955 28.3359 106.955 27.3133C106.955 26.4367 106.692 25.7354 106.166 25.2095C105.64 24.6835 104.91 24.4206 103.975 24.4206C103.01 24.4206 102.251 24.7128 101.696 25.2971C101.14 25.8815 100.863 26.685 100.863 27.7077C100.863 28.6719 101.097 29.4462 101.564 30.0306C102.061 30.5858 102.733 30.8634 103.58 30.8634ZM132.832 34.8956C132.248 34.0482 131.78 33.3178 131.43 32.7042C131.079 32.0906 130.816 31.4478 130.641 30.7757C130.203 31.2724 129.735 31.7692 129.238 32.2659C128.742 32.7334 128.187 33.1717 127.573 33.5807C126.989 33.9606 126.36 34.2674 125.688 34.5011C125.016 34.7641 124.286 34.8956 123.497 34.8956C122.766 34.8956 122.051 34.7641 121.349 34.5011C120.677 34.2382 120.078 33.7999 119.552 33.1863C119.026 32.5727 118.603 31.7399 118.281 30.6881C117.96 29.6362 117.799 28.3213 117.799 26.7435C117.799 26.3636 117.799 25.7793 117.799 24.9903C117.828 24.1722 117.858 23.3249 117.887 22.4483C117.916 21.5425 117.931 20.6805 117.931 19.8624C117.96 19.0443 117.974 18.4161 117.974 17.9778C117.974 17.0135 117.901 16.0931 117.755 15.2166C117.638 14.3108 117.419 13.5657 117.098 12.9813L123.102 11.9294C123.307 12.6015 123.424 13.3319 123.453 14.1208C123.511 14.9098 123.541 15.5964 123.541 16.1808C123.541 17.0281 123.511 17.8755 123.453 18.7229C123.424 19.5702 123.38 20.4029 123.322 21.2211C123.292 22.01 123.248 22.7697 123.19 23.5002C123.161 24.2014 123.146 24.815 123.146 25.341C123.146 27.0649 123.438 28.2483 124.023 28.8911C124.607 29.5339 125.411 29.8553 126.433 29.8553C127.281 29.8553 128.011 29.7092 128.625 29.417C129.238 29.1248 129.794 28.7742 130.29 28.3651C130.261 27.8392 130.246 27.2548 130.246 26.612C130.246 25.94 130.246 25.1803 130.246 24.3329C130.246 22.9888 130.246 21.7762 130.246 20.6951C130.246 19.614 130.232 18.606 130.203 17.671C130.203 16.736 130.188 15.8594 130.159 15.0412C130.159 14.1939 130.144 13.3319 130.115 12.4554H136.032C136.003 13.1566 135.973 13.9455 135.944 14.8221C135.915 15.6987 135.871 16.6337 135.813 17.6271C135.783 18.5914 135.754 19.5994 135.725 20.6513C135.696 21.674 135.681 22.6674 135.681 23.6317C135.681 24.7712 135.71 25.7062 135.769 26.4367C135.827 27.1379 135.944 27.7662 136.119 28.3213C136.295 28.8473 136.529 29.344 136.821 29.8115C137.113 30.2498 137.493 30.7611 137.96 31.3455L132.832 34.8956ZM147.435 0.62164C147.347 1.64431 147.274 2.69619 147.216 3.7773C147.187 4.85841 147.158 6.05639 147.128 7.37124C147.128 8.65688 147.114 10.1032 147.085 11.7103C147.085 13.3173 147.085 15.1581 147.085 17.2327C147.085 19.1611 147.085 20.9143 147.085 22.4921C147.085 24.0407 147.085 25.4871 147.085 26.8311C147.114 28.1752 147.128 29.4609 147.128 30.6881C147.158 31.886 147.187 33.1132 147.216 34.3697H141.299C141.328 32.8503 141.358 31.5062 141.387 30.3374C141.445 29.1687 141.489 27.9561 141.518 26.6997C141.547 25.414 141.577 23.9677 141.606 22.3606C141.635 20.7244 141.65 18.679 141.65 16.2246C141.65 13.741 141.635 11.2574 141.606 8.77376C141.577 6.26092 141.518 3.68964 141.431 1.05993L147.435 0.62164Z" fill="#1C3530"/>
</svg>
