<svg width="24" height="24" viewBox="0 0 24 24" fill="none" xmlns="http://www.w3.org/2000/svg">
<path d="M5.615 20C5.155 20 4.771 19.846 4.463 19.538C4.15433 19.2293 4 18.845 4 18.385V5.615C4 5.155 4.15433 4.771 4.463 4.463C4.771 4.15433 5.155 4 5.615 4H11.519C11.6617 4 11.7807 4.04767 11.876 4.143C11.9713 4.239 12.019 4.358 12.019 4.5C12.019 4.642 11.9713 4.761 11.876 4.857C11.7807 4.95233 11.6617 5 11.519 5H5.615C5.46167 5 5.32067 5.064 5.192 5.192C5.064 5.32067 5 5.46167 5 5.615V18.385C5 18.5383 5.064 18.6793 5.192 18.808C5.32067 18.936 5.46167 19 5.615 19H11.519C11.6617 19 11.7807 19.0477 11.876 19.143C11.9713 19.239 12.019 19.358 12.019 19.5C12.019 19.642 11.9713 19.761 11.876 19.857C11.7807 19.9523 11.6617 20 11.519 20H5.615ZM18.06 12.5H9.692C9.55 12.5 9.43133 12.4523 9.336 12.357C9.24 12.261 9.192 12.142 9.192 12C9.192 11.858 9.24 11.739 9.336 11.643C9.43133 11.5477 9.55 11.5 9.692 11.5H18.06L16.088 9.529C15.9947 9.43567 15.9447 9.32267 15.938 9.19C15.9313 9.058 15.9813 8.937 16.088 8.827C16.1947 8.717 16.3127 8.661 16.442 8.659C16.572 8.657 16.692 8.711 16.802 8.821L19.415 11.435C19.577 11.5963 19.658 11.7847 19.658 12C19.658 12.2153 19.577 12.4037 19.415 12.565L16.802 15.179C16.7047 15.2763 16.589 15.3273 16.455 15.332C16.321 15.336 16.1987 15.283 16.088 15.173C15.9813 15.063 15.9293 14.944 15.932 14.816C15.934 14.6887 15.988 14.572 16.094 14.466L18.06 12.5Z" fill="white"/>
</svg>
