<svg width="24" height="24" viewBox="0 0 24 24" fill="none" xmlns="http://www.w3.org/2000/svg">
<path d="M19.794 16.5C18.6005 18.5671 16.6347 20.0753 14.3292 20.6931M19.794 16.5C20.9874 14.4329 21.3108 11.9764 20.6931 9.67081M19.794 16.5L13.732 13M14.3292 20.6931C12.0236 21.3108 9.56711 20.9874 7.5 19.794M14.3292 20.6931L12.5176 13.9318M7.5 19.794C5.43294 18.6005 3.92465 16.6347 3.3069 14.3292M7.5 19.794L11 13.732M20.6931 9.67081C20.0753 7.36525 18.5671 5.39951 16.5 4.206M20.6931 9.67081L13.9318 11.4824M16.5 4.206C14.4329 3.01258 11.9764 2.68916 9.67081 3.3069M16.5 4.206L13 10.268M13.732 13C13.4668 13.4593 13.0299 13.7945 12.5176 13.9318M13.732 13C13.9972 12.5406 14.0691 11.9947 13.9318 11.4824M3.3069 14.3292C2.68916 12.0236 3.01258 9.56711 4.206 7.5M3.3069 14.3292L10.0682 12.5176M4.206 7.5C5.39951 5.43294 7.36525 3.92465 9.67081 3.3069M4.206 7.5L10.268 11M11 13.732C11.4594 13.9972 12.0052 14.0691 12.5176 13.9318M11 13.732C10.5407 13.4668 10.2055 13.0299 10.0682 12.5176M9.67081 3.3069L11.4824 10.0682M10.268 11C10.0028 11.4594 9.93092 12.0052 10.0682 12.5176M10.268 11C10.5332 10.5407 10.9701 10.2055 11.4824 10.0682M13 10.268C13.4593 10.5332 13.7945 10.9701 13.9318 11.4824M13 10.268C12.5406 10.0028 11.9947 9.93092 11.4824 10.0682" stroke="white" stroke-width="1.5" stroke-linecap="round" stroke-linejoin="round"/>
</svg>
