<svg width="148" height="148" viewBox="0 0 148 148" fill="none" xmlns="http://www.w3.org/2000/svg">
<path fill-rule="evenodd" clip-rule="evenodd" d="M37 80.1667H111C115.907 80.1667 120.612 78.2176 124.081 74.7481C127.551 71.2787 129.5 66.5732 129.5 61.6667C129.5 56.7601 127.551 52.0546 124.081 48.5852C120.612 45.1158 115.907 43.1667 111 43.1667C109.273 43.1667 108.41 43.1667 107.812 43.0433C105.974 42.6733 105.099 42.1122 104.013 40.5828C103.656 40.0895 103.15 38.9672 102.145 36.7225C99.7141 31.2902 95.7635 26.6774 90.7694 23.4407C85.7753 20.204 79.9512 18.4817 74 18.4817C68.0488 18.4817 62.2247 20.204 57.2306 23.4407C52.2365 26.6774 48.2859 31.2902 45.8553 36.7225C44.8502 38.9672 44.3445 40.0833 43.9868 40.5828C42.9015 42.1122 42.0258 42.6795 40.1882 43.0495C39.5838 43.1667 38.7267 43.1667 37 43.1667C32.0935 43.1667 27.3879 45.1158 23.9185 48.5852C20.4491 52.0546 18.5 56.7601 18.5 61.6667C18.5 66.5732 20.4491 71.2787 23.9185 74.7481C27.3879 78.2176 32.0935 80.1667 37 80.1667Z" fill="black" fill-opacity="0.25"/>
<path d="M58.583 70.9167L73.9997 55.5M73.9997 55.5L89.4163 70.9167M73.9997 55.5V117.167" stroke="black" stroke-width="6.16667" stroke-linecap="round"/>
</svg>
